<svg width="1600" height="1000" viewBox="0 0 1600 1000" fill="none" xmlns="http://www.w3.org/2000/svg">
  <rect width="1600" height="1000" fill="#08101F"/>
  <rect width="1600" height="1000" fill="url(#bg)"/>
  <path d="M0 731C135 668 243 643 348 651C470 661 580 736 741 762C904 788 1038 738 1164 690C1299 638 1421 614 1600 654V1000H0V731Z" fill="#0F1830"/>
  <path d="M0 790C137 733 272 726 382 748C492 770 577 827 720 850C890 878 1020 840 1132 794C1281 732 1404 715 1600 767V1000H0V790Z" fill="#16233F"/>
  <path d="M566 1000L784 543H971L1181 1000H566Z" fill="#101A2F"/>
  <path d="M687 1000L836 576H931L1071 1000H687Z" fill="#0A1222"/>
  <rect x="1033" y="299" width="324" height="206" rx="26" fill="#18233E"/>
  <rect x="1070" y="335" width="121" height="25" rx="12.5" fill="#DCE8FF"/>
  <rect x="1070" y="384" width="168" height="18" rx="9" fill="#47D3C5"/>
  <rect x="1070" y="419" width="200" height="18" rx="9" fill="#2A3958"/>
  <rect x="1070" y="454" width="152" height="18" rx="9" fill="#2A3958"/>
  <rect x="322" y="378" width="494" height="263" rx="34" fill="#243552"/>
  <polygon points="298,408 560,220 842,408" fill="#314665"/>
  <rect x="539" y="478" width="90" height="163" rx="16" fill="#111A2E"/>
  <rect x="390" y="449" width="93" height="81" rx="14" fill="#111A2E"/>
  <rect x="673" y="449" width="93" height="81" rx="14" fill="#111A2E"/>
  <rect x="180" y="608" width="154" height="186" rx="28" fill="#1A2946"/>
  <rect x="206" y="640" width="102" height="20" rx="10" fill="#9EF5EA"/>
  <rect x="216" y="676" width="82" height="18" rx="9" fill="#DCE8FF"/>
  <path d="M708 958L931 590" stroke="#EAF2FF" stroke-width="14" stroke-linecap="round"/>
  <circle cx="981" cy="592" r="62" fill="#18233E"/>
  <circle cx="981" cy="592" r="28" fill="#47D3C5"/>
  <circle cx="251" cy="214" r="116" fill="url(#glow)" opacity="0.42"/>
  <defs>
    <linearGradient id="bg" x1="800" y1="0" x2="800" y2="1000" gradientUnits="userSpaceOnUse">
      <stop stop-color="#15233F"/>
      <stop offset="1" stop-color="#08101F"/>
    </linearGradient>
    <radialGradient id="glow" cx="0" cy="0" r="1" gradientUnits="userSpaceOnUse" gradientTransform="translate(251 214) rotate(90) scale(116)">
      <stop stop-color="#47D3C5"/>
      <stop offset="1" stop-color="#47D3C5" stop-opacity="0"/>
    </radialGradient>
  </defs>
</svg>
