<svg width="1600" height="1000" viewBox="0 0 1600 1000" fill="none" xmlns="http://www.w3.org/2000/svg">
  <rect width="1600" height="1000" fill="#09101F"/>
  <rect width="1600" height="1000" fill="url(#bg)"/>
  <rect y="604" width="1600" height="396" fill="#121D34"/>
  <path d="M0 661H1600" stroke="#2A3958" stroke-width="12"/>
  <path d="M0 806H1600" stroke="#2A3958" stroke-width="12"/>
  <path d="M109 730H333" stroke="#F4F7FE" stroke-width="10" stroke-linecap="round" stroke-dasharray="34 30"/>
  <path d="M491 730H715" stroke="#F4F7FE" stroke-width="10" stroke-linecap="round" stroke-dasharray="34 30"/>
  <path d="M873 730H1097" stroke="#F4F7FE" stroke-width="10" stroke-linecap="round" stroke-dasharray="34 30"/>
  <path d="M1255 730H1479" stroke="#F4F7FE" stroke-width="10" stroke-linecap="round" stroke-dasharray="34 30"/>
  <rect x="980" y="486" width="318" height="112" rx="28" fill="#18233E"/>
  <rect x="1020" y="520" width="82" height="24" rx="12" fill="#9EF5EA"/>
  <rect x="1118" y="520" width="136" height="24" rx="12" fill="#2A3958"/>
  <rect x="1038" y="464" width="154" height="28" rx="14" fill="#F3F7FF"/>
  <rect x="422" y="628" width="508" height="162" rx="36" fill="#212F4D"/>
  <rect x="470" y="658" width="204" height="82" rx="22" fill="#10192D"/>
  <rect x="681" y="658" width="201" height="82" rx="22" fill="#10192D"/>
  <circle cx="532" cy="790" r="42" fill="#0B1326"/>
  <circle cx="821" cy="790" r="42" fill="#0B1326"/>
  <circle cx="532" cy="790" r="20" fill="#324464"/>
  <circle cx="821" cy="790" r="20" fill="#324464"/>
  <rect x="516" y="676" width="321" height="22" rx="11" fill="#47D3C5" opacity="0.24"/>
  <path d="M462 653L522 604H800L886 653H462Z" fill="#2B3D62"/>
  <rect x="796" y="658" width="162" height="173" rx="34" fill="#324464"/>
  <rect x="820" y="681" width="114" height="18" rx="9" fill="#DCE8FF"/>
  <rect x="820" y="714" width="94" height="18" rx="9" fill="#47D3C5"/>
  <circle cx="869" cy="882" r="58" fill="#0C1427"/>
  <circle cx="869" cy="882" r="28" fill="#253655"/>
  <circle cx="1338" cy="340" r="146" fill="url(#glow)" opacity="0.5"/>
  <defs>
    <linearGradient id="bg" x1="800" y1="0" x2="800" y2="604" gradientUnits="userSpaceOnUse">
      <stop stop-color="#14203B"/>
      <stop offset="1" stop-color="#0A1222"/>
    </linearGradient>
    <radialGradient id="glow" cx="0" cy="0" r="1" gradientUnits="userSpaceOnUse" gradientTransform="translate(1338 340) rotate(90) scale(146)">
      <stop stop-color="#47D3C5"/>
      <stop offset="1" stop-color="#47D3C5" stop-opacity="0"/>
    </radialGradient>
  </defs>
</svg>
